<svg width="153.761963" height="51.261230" viewBox="0 0 153.762 51.2612" fill="none" xmlns="http://www.w3.org/2000/svg" xmlns:xlink="http://www.w3.org/1999/xlink">
	<desc>
			Created with Pixso.
	</desc>
	<defs/>
	<path id="Vector" d="M153.762 37.6934C153.762 45.1514 147.652 51.2612 140.194 51.2612L13.5679 51.2612C6.11011 51.2612 0 45.1514 0 37.6934L0 13.5679C0 6.10986 6.11011 0 13.5679 0L140.194 0C147.652 0 153.762 6.10986 153.762 13.5679L153.762 37.6934Z" fill="#404040" fill-opacity="1.000000" fill-rule="nonzero"/>
	<path id="Available on the" d="M57.8746 17.2496L58.5246 18.8496L59.3246 18.8496L56.6546 12.3496L56.0746 12.3496L53.4046 18.8496L54.2046 18.8496L54.8546 17.2496L57.8746 17.2496ZM72.103 18.8496L72.823 18.8496L72.823 12.3496L72.103 12.3496L72.103 18.8496ZM84.5564 16.5496C84.5564 15.1696 83.6164 14.1796 82.3064 14.1796C81.5264 14.1796 80.9464 14.5296 80.5964 15.0796L80.5964 12.3496L79.8764 12.3496L79.8764 18.8496L80.5964 18.8496L80.5964 18.0196C80.9464 18.5696 81.5264 18.9296 82.3064 18.9296C83.6164 18.9296 84.5564 17.9196 84.5564 16.5496ZM85.6674 18.8496L86.3875 18.8496L86.3875 12.3496L85.6674 12.3496L85.6674 18.8496ZM115.244 16.0196C115.244 14.7196 114.334 14.1796 113.414 14.1796C112.844 14.1796 112.284 14.3896 111.934 14.8696L111.934 12.3496L111.214 12.3496L111.214 18.8496L111.934 18.8496L111.934 16.1196C111.934 15.2396 112.534 14.8096 113.224 14.8096C113.904 14.8096 114.524 15.2396 114.524 16.1196L114.524 18.8496L115.244 18.8496L115.244 16.0196ZM69.9643 12.8196C69.9643 13.0896 70.1843 13.2696 70.4043 13.2696C70.6243 13.2696 70.8443 13.0896 70.8443 12.8196C70.8443 12.5496 70.6243 12.3896 70.4043 12.3896C70.1843 12.3896 69.9643 12.5496 69.9643 12.8196ZM109.12 14.8196L110.22 14.8196L110.22 14.2496L109.12 14.2496L109.12 12.8496L108.39 12.8496L108.39 14.2496L107.75 14.2496L107.75 14.8196L108.39 14.8196L108.39 17.7496C108.39 18.4496 108.8 18.8496 109.5 18.8496L110.17 18.8496L110.17 18.2596L109.76 18.2596C109.42 18.2596 109.12 18.1396 109.12 17.6496L109.12 14.8196ZM57.5846 16.5496L55.1346 16.5496L56.3546 13.5196L57.5846 16.5496ZM91.9799 16.5496C91.9799 15.1796 91.0999 14.1696 89.7799 14.1696C88.3999 14.1696 87.5099 15.1796 87.5099 16.5496C87.5099 17.9196 88.4399 18.9396 89.8399 18.9396C90.6799 18.9396 91.3599 18.5696 91.7599 17.9796L91.2499 17.6096C90.9899 17.9996 90.5199 18.3096 89.8399 18.3096C88.9299 18.3096 88.2999 17.6996 88.2099 16.7796L91.9799 16.7796L91.9799 16.5496ZM94.961 16.5496C94.961 17.9196 95.921 18.9396 97.301 18.9396C98.681 18.9396 99.641 17.9196 99.641 16.5496C99.641 15.1696 98.681 14.1696 97.301 14.1696C95.921 14.1696 94.961 15.1696 94.961 16.5496ZM120.837 16.5496C120.837 15.1796 119.957 14.1696 118.637 14.1696C117.257 14.1696 116.367 15.1796 116.367 16.5496C116.367 17.9196 117.297 18.9396 118.697 18.9396C119.537 18.9396 120.217 18.5696 120.617 17.9796L120.107 17.6096C119.847 17.9996 119.377 18.3096 118.697 18.3096C117.787 18.3096 117.157 17.6996 117.067 16.7796L120.837 16.7796L120.837 16.5496ZM68.7133 14.2496L67.9833 14.2496L67.9833 15.0796C67.6333 14.5296 67.0533 14.1796 66.2733 14.1796C64.9633 14.1796 64.0333 15.1696 64.0333 16.5496C64.0333 17.9196 64.9633 18.9296 66.2733 18.9296C67.0533 18.9296 67.6333 18.5696 67.9833 18.0196L67.9833 18.8496L68.7133 18.8496L68.7133 14.2496ZM78.6254 14.2496L77.8954 14.2496L77.8954 15.0796C77.5454 14.5296 76.9654 14.1796 76.1854 14.1796C74.8754 14.1796 73.9454 15.1696 73.9454 16.5496C73.9454 17.9196 74.8754 18.9296 76.1854 18.9296C76.9654 18.9296 77.5454 18.5696 77.8954 18.0196L77.8954 18.8496L78.6254 18.8496L78.6254 14.2496ZM104.785 16.0196C104.785 14.7196 103.875 14.1796 102.955 14.1796C102.385 14.1796 101.825 14.3896 101.475 14.8696L101.475 14.2496L100.755 14.2496L100.755 18.8496L101.475 18.8496L101.475 16.1196C101.475 15.2396 102.075 14.8096 102.765 14.8096C103.445 14.8096 104.065 15.2396 104.065 16.1196L104.065 18.8496L104.785 18.8496L104.785 16.0196ZM59.9132 14.2496L59.1632 14.2496L60.9732 18.8496L61.6832 18.8496L63.5132 14.2496L62.7632 14.2496L61.3332 17.8596L59.9132 14.2496ZM70.0443 18.8496L70.7643 18.8496L70.7743 14.2496L70.0443 14.2496L70.0443 18.8496ZM88.2099 16.2796C88.3099 15.3796 88.8799 14.7696 89.7799 14.7696C90.6399 14.7696 91.2099 15.4096 91.3099 16.2796L88.2099 16.2796ZM117.067 16.2796C117.167 15.3796 117.737 14.7696 118.637 14.7696C119.497 14.7696 120.067 15.4096 120.167 16.2796L117.067 16.2796ZM67.9833 16.5496C67.9833 17.5296 67.3533 18.2396 66.3633 18.2396C65.3833 18.2396 64.7333 17.5296 64.7333 16.5496C64.7333 15.5696 65.3833 14.8696 66.3633 14.8696C67.3533 14.8696 67.9833 15.5696 67.9833 16.5496ZM77.8954 16.5496C77.8954 17.5296 77.2654 18.2396 76.2754 18.2396C75.2954 18.2396 74.6454 17.5296 74.6454 16.5496C74.6454 15.5696 75.2954 14.8696 76.2754 14.8696C77.2654 14.8696 77.8954 15.5696 77.8954 16.5496ZM83.8464 16.5496C83.8464 17.5296 83.1964 18.2396 82.2164 18.2396C81.2364 18.2396 80.5964 17.5296 80.5964 16.5496C80.5964 15.5696 81.2364 14.8696 82.2164 14.8696C83.1964 14.8696 83.8464 15.5696 83.8464 16.5496ZM98.911 16.5496C98.911 17.5196 98.271 18.2396 97.301 18.2396C96.331 18.2396 95.681 17.5196 95.681 16.5496C95.681 15.5796 96.331 14.8696 97.301 14.8696C98.271 14.8696 98.911 15.5796 98.911 16.5496Z" fill="#FFFFFF" fill-opacity="1.000000" fill-rule="evenodd"/>
	<path id="App Store" d="M88.6748 36.9605L87.5588 37.6985C88.1168 39.2285 89.8268 40.3985 92.3468 40.3985C95.1548 40.3985 96.8288 39.1925 96.8288 36.8885C96.8288 34.4585 93.7868 33.8465 92.7428 33.5405C91.5908 33.2345 89.5028 32.9285 89.5028 31.4885C89.5028 30.3365 90.4568 29.6525 92.2028 29.6525C93.8948 29.6525 95.2268 30.4265 95.5508 31.2905L96.6668 30.6245C96.2348 29.3465 94.5068 28.3025 92.3468 28.3025C89.8448 28.3025 87.9728 29.3465 87.9728 31.5425C87.9728 33.9545 90.8528 34.4405 91.9868 34.7465C93.0488 35.0525 95.3348 35.4125 95.3348 36.9425C95.3348 38.2925 94.4888 39.0485 92.4728 39.0485C90.5288 39.0485 89.0888 38.0585 88.6748 36.9605ZM59.3018 37.3205L60.4718 40.2005L61.9118 40.2005L57.1058 28.5005L56.0618 28.5005L51.2558 40.2005L52.6958 40.2005L53.8658 37.3205L59.3018 37.3205ZM100.655 32.9465L102.635 32.9465L102.635 31.9205L100.655 31.9205L100.655 29.4005L99.3414 29.4005L99.3414 31.9205L98.1894 31.9205L98.1894 32.9465L99.3414 32.9465L99.3414 38.2205C99.3414 39.4805 100.079 40.2005 101.339 40.2005L102.545 40.2005L102.545 39.1385L101.807 39.1385C101.195 39.1385 100.655 38.9225 100.655 38.0405L100.655 32.9465ZM58.7798 36.0605L54.3698 36.0605L56.5658 30.6065L58.7798 36.0605ZM103.751 36.0605C103.751 38.5265 105.479 40.3625 107.963 40.3625C110.447 40.3625 112.175 38.5265 112.175 36.0605C112.175 33.5765 110.447 31.7765 107.963 31.7765C105.479 31.7765 103.751 33.5765 103.751 36.0605ZM127.283 36.0605C127.283 33.5945 125.699 31.7765 123.323 31.7765C120.839 31.7765 119.237 33.5945 119.237 36.0605C119.237 38.5265 120.911 40.3625 123.431 40.3625C124.943 40.3625 126.167 39.6965 126.887 38.6345L125.969 37.9685C125.501 38.6705 124.655 39.2285 123.431 39.2285C121.793 39.2285 120.659 38.1305 120.497 36.4745L127.283 36.4745L127.283 36.0605ZM71.8917 36.0785C71.8917 33.6125 70.1997 31.7945 67.8417 31.7945C66.4377 31.7945 65.3937 32.4245 64.7637 33.4325L64.7637 31.9205L63.4677 31.9205L63.4677 43.5125L64.7637 43.5125L64.7637 38.7065C65.3937 39.7145 66.4377 40.3445 67.8417 40.3445C70.1997 40.3445 71.8917 38.5625 71.8917 36.0785ZM82.3155 36.0785C82.3155 33.6125 80.6235 31.7945 78.2655 31.7945C76.8615 31.7945 75.8175 32.4245 75.1875 33.4325L75.1875 31.9205L73.8915 31.9205L73.8915 43.5125L75.1875 43.5125L75.1875 38.7065C75.8175 39.7145 76.8615 40.3445 78.2655 40.3445C80.6235 40.3445 82.3155 38.5625 82.3155 36.0785ZM118.393 31.7945C117.223 31.8125 116.107 32.3165 115.477 33.4505L115.477 31.9205L114.181 31.9205L114.181 40.2005L115.477 40.2005L115.477 35.7365C115.477 33.7205 117.115 33.0545 118.393 33.0365L118.393 31.7945ZM120.497 35.5745C120.677 33.9545 121.703 32.8565 123.323 32.8565C124.871 32.8565 125.897 34.0085 126.077 35.5745L120.497 35.5745ZM70.6137 36.0785C70.6137 37.8425 69.4437 39.1025 67.6797 39.1025C65.9157 39.1025 64.7637 37.8425 64.7637 36.0785C64.7637 34.3145 65.9157 33.0365 67.6797 33.0365C69.4437 33.0365 70.6137 34.3145 70.6137 36.0785ZM81.0375 36.0785C81.0375 37.8425 79.8675 39.1025 78.1035 39.1025C76.3395 39.1025 75.1875 37.8425 75.1875 36.0785C75.1875 34.3145 76.3395 33.0365 78.1035 33.0365C79.8675 33.0365 81.0375 34.3145 81.0375 36.0785ZM110.861 36.0605C110.861 37.8065 109.709 39.1025 107.963 39.1025C106.217 39.1025 105.047 37.8065 105.047 36.0605C105.047 34.3145 106.217 33.0365 107.963 33.0365C109.709 33.0365 110.861 34.3145 110.861 36.0605Z" fill="#FFFFFF" fill-opacity="1.000000" fill-rule="evenodd"/>
	<path id="Vector" d="M26.9333 10.7378L11.0293 10.7378C9.72656 10.7378 8.67065 11.7935 8.67065 13.0962L8.67065 40.0078C8.67065 41.3105 9.72656 42.3662 11.0293 42.3662L26.9333 42.3662C28.2363 42.3662 29.292 41.3105 29.292 40.0078L29.292 13.0962C29.292 11.8159 28.2139 10.7378 26.9333 10.7378Z" fill="#FFFFFF" fill-opacity="1.000000" fill-rule="nonzero"/>
	<path id="Vector" d="M9.79395 14.5342L28.1465 14.5342L28.1465 36.728L9.79395 36.728L9.79395 14.5342Z" fill="#404040" fill-opacity="1.000000" fill-rule="evenodd"/>
	<path id="Vector" d="M22.7329 12.1523L15.2075 12.1523C14.9155 12.1523 14.646 12.3994 14.646 12.7139C14.646 13.0283 14.8931 13.2754 15.2075 13.2754L22.7329 13.2754C23.0249 13.2754 23.2944 13.0283 23.2944 12.7139C23.2944 12.4219 23.0474 12.1523 22.7329 12.1523Z" fill="#6639A6" fill-opacity="1.000000" fill-rule="nonzero"/>
	<path id="Vector" d="M17.1846 39.4009C17.1846 38.4126 17.9932 37.5815 18.9817 37.5815C19.97 37.5815 20.8013 38.3901 20.8013 39.4009C20.8013 40.3896 19.9924 41.1982 18.9817 41.1982C17.9932 41.2207 17.1846 40.4121 17.1846 39.4009Z" fill="#6639A6" fill-opacity="1.000000" fill-rule="nonzero"/>
</svg>
