<svg width="15.583740" height="15.580078" viewBox="0 0 15.5837 15.5801" fill="none" xmlns="http://www.w3.org/2000/svg" xmlns:xlink="http://www.w3.org/1999/xlink">
	<desc>
			Created with Pixso.
	</desc>
	<defs/>
	<path id="Vector" d="M7.7937 3.79541C5.58252 3.79541 3.79907 5.5791 3.79907 7.79004C3.79907 10.001 5.58252 11.7847 7.7937 11.7847C10.0046 11.7847 11.7881 10.001 11.7881 7.79004C11.7881 5.5791 10.0046 3.79541 7.7937 3.79541ZM7.7937 10.3872C6.36475 10.3872 5.19653 9.22266 5.19653 7.79004C5.19653 6.35791 6.36133 5.19336 7.7937 5.19336C9.22583 5.19336 10.3906 6.35791 10.3906 7.79004C10.3906 9.22266 9.22241 10.3872 7.7937 10.3872ZM12.8833 3.63232C12.8833 4.15039 12.4661 4.56396 11.9517 4.56396C11.4336 4.56396 11.0198 4.14648 11.0198 3.63232C11.0198 3.11768 11.437 2.7002 11.9517 2.7002C12.4661 2.7002 12.8833 3.11768 12.8833 3.63232ZM15.5291 4.57764C15.4697 3.32959 15.1848 2.22412 14.2705 1.31348C13.3596 0.402344 12.2539 0.117188 11.0059 0.0546875C9.71948 -0.0180664 5.86401 -0.0180664 4.57788 0.0546875C3.33325 0.11377 2.22754 0.398926 1.31323 1.30957C0.398926 2.2207 0.117432 3.32617 0.0546875 4.57422C-0.0183105 5.86084 -0.0183105 9.71631 0.0546875 11.0024C0.11377 12.2505 0.398926 13.356 1.31323 14.2671C2.22754 15.1777 3.32959 15.4629 4.57788 15.5254C5.86401 15.5986 9.71948 15.5986 11.0059 15.5254C12.2539 15.4663 13.3596 15.1812 14.2705 14.2671C15.1814 13.356 15.4663 12.2505 15.5291 11.0024C15.6021 9.71631 15.6021 5.86426 15.5291 4.57764ZM13.8672 12.3828C13.5959 13.064 13.071 13.5889 12.3862 13.8638C11.3606 14.2705 8.927 14.1768 7.7937 14.1768C6.66016 14.1768 4.22314 14.2671 3.20093 13.8638C2.51953 13.5923 1.99463 13.0674 1.71997 12.3828C1.31323 11.3569 1.40723 8.92334 1.40723 7.79004C1.40723 6.65674 1.31665 4.21973 1.71997 3.19775C1.99121 2.51611 2.51611 1.99121 3.20093 1.71631C4.22656 1.30957 6.66016 1.40381 7.7937 1.40381C8.927 1.40381 11.364 1.31348 12.3862 1.71631C13.0676 1.98779 13.5925 2.5127 13.8672 3.19775C14.2739 4.22314 14.1799 6.65674 14.1799 7.79004C14.1799 8.92334 14.2739 11.3604 13.8672 12.3828Z" fill="#2A2F2F" fill-opacity="1.000000" fill-rule="nonzero"/>
</svg>
