<?xml version="1.0" standalone="no"?>
<!DOCTYPE svg PUBLIC "-//W3C//DTD SVG 20010904//EN"
 "http://www.w3.org/TR/2001/REC-SVG-20010904/DTD/svg10.dtd">
<svg version="1.0" xmlns="http://www.w3.org/2000/svg"
 width="14.000000pt" height="13.000000pt" viewBox="0 0 14.000000 13.000000"
 preserveAspectRatio="xMidYMid meet">

<g transform="translate(0.000000,13.000000) scale(0.100000,-0.100000)"
fill="#000000" stroke="none">
<path d="M10 120 c0 -5 5 -10 10 -10 6 0 10 5 10 10 0 6 -4 10 -10 10 -5 0
-10 -4 -10 -10z"/>
<path d="M10 55 c0 -25 5 -45 10 -45 6 0 10 20 10 45 0 25 -4 45 -10 45 -5 0
-10 -20 -10 -45z"/>
<path d="M60 54 c0 -24 5 -44 10 -44 6 0 10 16 10 36 0 45 24 42 28 -4 4 -43
22 -41 22 2 0 37 -13 52 -47 54 -21 1 -23 -4 -23 -44z"/>
</g>
</svg>
