<svg width="153.761963" height="51.238770" viewBox="0 0 153.762 51.2388" fill="none" xmlns="http://www.w3.org/2000/svg" xmlns:xlink="http://www.w3.org/1999/xlink">
	<desc>
			Created with Pixso.
	</desc>
	<defs/>
	<path id="Vector" d="M153.762 37.6709C153.762 45.1289 147.652 51.2388 140.194 51.2388L13.5679 51.2388C6.11011 51.2388 0 45.1289 0 37.6709L0 13.5679C0 6.10986 6.11011 0 13.5679 0L140.194 0C147.652 0 153.762 6.10986 153.762 13.5679L153.762 37.6709Z" fill="#404040" fill-opacity="1.000000" fill-rule="nonzero"/>
	<path id="android app on" d="M66.7409 12.5L66.0109 12.5L66.0109 15.23C65.6609 14.68 65.0809 14.33 64.3009 14.33C62.9909 14.33 62.0609 15.32 62.0609 16.7C62.0609 18.07 62.9909 19.08 64.3009 19.08C65.0809 19.08 65.6609 18.72 66.0109 18.17L66.0109 19L66.7409 19L66.7409 12.5ZM83.2741 12.5L82.5441 12.5L82.5441 15.23C82.1941 14.68 81.6141 14.33 80.8341 14.33C79.5241 14.33 78.5941 15.32 78.5941 16.7C78.5941 18.07 79.5241 19.08 80.8341 19.08C81.6141 19.08 82.1941 18.72 82.5441 18.17L82.5441 19L83.2741 19L83.2741 12.5ZM76.5954 12.97C76.5954 13.24 76.8154 13.42 77.0354 13.42C77.2554 13.42 77.4754 13.24 77.4754 12.97C77.4754 12.7 77.2554 12.54 77.0354 12.54C76.8154 12.54 76.5954 12.7 76.5954 12.97ZM70.8011 16.7C70.8011 18.07 71.7611 19.09 73.1411 19.09C74.5211 19.09 75.4811 18.07 75.4811 16.7C75.4811 15.32 74.5211 14.32 73.1411 14.32C71.7611 14.32 70.8011 15.32 70.8011 16.7ZM105.762 16.7C105.762 18.07 106.722 19.09 108.102 19.09C109.482 19.09 110.442 18.07 110.442 16.7C110.442 15.32 109.482 14.32 108.102 14.32C106.722 14.32 105.762 15.32 105.762 16.7ZM55.6569 14.4L54.9269 14.4L54.9269 15.23C54.5769 14.68 53.9969 14.33 53.2169 14.33C51.9069 14.33 50.9769 15.32 50.9769 16.7C50.9769 18.07 51.9069 19.08 53.2169 19.08C53.9969 19.08 54.5769 18.72 54.9269 18.17L54.9269 19L55.6569 19L55.6569 14.4ZM60.9379 16.17C60.9379 14.87 60.0279 14.33 59.1079 14.33C58.5379 14.33 57.9779 14.54 57.6279 15.02L57.6279 14.4L56.9079 14.4L56.9079 19L57.6279 19L57.6279 16.27C57.6279 15.39 58.2279 14.96 58.9179 14.96C59.5979 14.96 60.2179 15.39 60.2179 16.27L60.2179 19L60.9379 19L60.9379 16.17ZM70.3319 14.33C69.6819 14.34 69.0619 14.62 68.7119 15.25L68.7119 14.4L67.9919 14.4L67.9919 19L68.7119 19L68.7119 16.52C68.7119 15.4 69.6219 15.03 70.3319 15.02L70.3319 14.33ZM91.0671 14.4L90.3371 14.4L90.3371 15.23C89.9871 14.68 89.4071 14.33 88.6271 14.33C87.3171 14.33 86.3871 15.32 86.3871 16.7C86.3871 18.07 87.3171 19.08 88.6271 19.08C89.4071 19.08 89.9871 18.72 90.3371 18.17L90.3371 19L91.0671 19L91.0671 14.4ZM96.9981 16.71C96.9981 15.34 96.0581 14.33 94.7481 14.33C93.9681 14.33 93.3881 14.68 93.0381 15.24L93.0381 14.4L92.3181 14.4L92.3181 20.84L93.0381 20.84L93.0381 18.17C93.3881 18.73 93.9681 19.08 94.7481 19.08C96.0581 19.08 96.9981 18.09 96.9981 16.71ZM102.789 16.71C102.789 15.34 101.849 14.33 100.539 14.33C99.7591 14.33 99.1791 14.68 98.8291 15.24L98.8291 14.4L98.1091 14.4L98.1091 20.84L98.8291 20.84L98.8291 18.17C99.1791 18.73 99.7591 19.08 100.539 19.08C101.849 19.08 102.789 18.09 102.789 16.71ZM115.586 16.17C115.586 14.87 114.676 14.33 113.756 14.33C113.186 14.33 112.626 14.54 112.276 15.02L112.276 14.4L111.556 14.4L111.556 19L112.276 19L112.276 16.27C112.276 15.39 112.876 14.96 113.566 14.96C114.246 14.96 114.866 15.39 114.866 16.27L114.866 19L115.586 19L115.586 16.17ZM76.6754 19L77.3954 19L77.4054 14.4L76.6754 14.4L76.6754 19ZM54.9269 16.7C54.9269 17.68 54.2969 18.39 53.3069 18.39C52.3269 18.39 51.6769 17.68 51.6769 16.7C51.6769 15.72 52.3269 15.02 53.3069 15.02C54.2969 15.02 54.9269 15.72 54.9269 16.7ZM66.0109 16.7C66.0109 17.68 65.3809 18.39 64.3909 18.39C63.4109 18.39 62.7609 17.68 62.7609 16.7C62.7609 15.72 63.4109 15.02 64.3909 15.02C65.3809 15.02 66.0109 15.72 66.0109 16.7ZM74.7511 16.7C74.7511 17.67 74.1111 18.39 73.1411 18.39C72.1711 18.39 71.5211 17.67 71.5211 16.7C71.5211 15.73 72.1711 15.02 73.1411 15.02C74.1111 15.02 74.7511 15.73 74.7511 16.7ZM82.5441 16.7C82.5441 17.68 81.9141 18.39 80.9241 18.39C79.9441 18.39 79.2941 17.68 79.2941 16.7C79.2941 15.72 79.9441 15.02 80.9241 15.02C81.9141 15.02 82.5441 15.72 82.5441 16.7ZM90.3371 16.7C90.3371 17.68 89.7071 18.39 88.7171 18.39C87.7371 18.39 87.0871 17.68 87.0871 16.7C87.0871 15.72 87.7371 15.02 88.7171 15.02C89.7071 15.02 90.3371 15.72 90.3371 16.7ZM96.2881 16.71C96.2881 17.69 95.6381 18.39 94.6581 18.39C93.6781 18.39 93.0381 17.69 93.0381 16.71C93.0381 15.73 93.6781 15.02 94.6581 15.02C95.6381 15.02 96.2881 15.73 96.2881 16.71ZM102.079 16.71C102.079 17.69 101.429 18.39 100.449 18.39C99.4691 18.39 98.8291 17.69 98.8291 16.71C98.8291 15.73 99.4691 15.02 100.449 15.02C101.429 15.02 102.079 15.73 102.079 16.71ZM109.712 16.7C109.712 17.67 109.072 18.39 108.102 18.39C107.132 18.39 106.482 17.67 106.482 16.7C106.482 15.73 107.132 15.02 108.102 15.02C109.072 15.02 109.712 15.73 109.712 16.7Z" fill="#FFFFFF" fill-opacity="1.000000" fill-rule="evenodd"/>
	<path id="Google Play" d="M54.5088 40.1047C57.8928 40.1047 60.0168 37.7107 60.1248 34.3807L60.1248 33.8047L54.4548 33.8047L54.4548 35.0647L58.5948 35.0647C58.3608 37.3147 56.7228 38.7367 54.5088 38.7367C51.8268 38.7367 50.0088 36.7927 50.0088 34.1107C50.0088 31.4287 51.8268 29.4847 54.5088 29.4847C56.0028 29.4847 57.2988 30.0967 58.1268 31.2487L59.2428 30.4567C58.2348 29.0167 56.5788 28.1167 54.5088 28.1167C51.0348 28.1167 48.6588 30.6367 48.6588 34.1107C48.6588 37.5847 51.0348 40.1047 54.5088 40.1047ZM92.995 39.9607L94.291 39.9607L94.291 28.2607L92.995 28.2607L92.995 39.9607ZM118.597 31.8247C118.597 29.6647 117.013 28.2607 115.249 28.2607L109.975 28.2607L109.975 39.9607L111.325 39.9607L111.325 35.3887L115.249 35.3887C117.013 35.3887 118.597 33.9847 118.597 31.8247ZM120.487 39.9607L121.783 39.9607L121.783 28.2607L120.487 28.2607L120.487 39.9607ZM117.229 31.8247C117.229 33.0847 116.311 34.0747 115.051 34.0747L111.325 34.0747L111.325 29.5927L115.051 29.5927C116.329 29.5927 117.229 30.5827 117.229 31.8247ZM61.9637 35.8207C61.9637 38.2867 63.6917 40.1227 66.1757 40.1227C68.6597 40.1227 70.3877 38.2867 70.3877 35.8207C70.3877 33.3367 68.6597 31.5367 66.1757 31.5367C63.6917 31.5367 61.9637 33.3367 61.9637 35.8207ZM72.1414 35.8207C72.1414 38.2867 73.8695 40.1227 76.3535 40.1227C78.8375 40.1227 80.5655 38.2867 80.5655 35.8207C80.5655 33.3367 78.8375 31.5367 76.3535 31.5367C73.8695 31.5367 72.1414 33.3367 72.1414 35.8207ZM104.357 35.8207C104.357 33.3547 102.773 31.5367 100.397 31.5367C97.9134 31.5367 96.3114 33.3547 96.3114 35.8207C96.3114 38.2867 97.9854 40.1227 100.505 40.1227C102.017 40.1227 103.241 39.4567 103.961 38.3947L103.043 37.7287C102.575 38.4307 101.729 38.9887 100.505 38.9887C98.8674 38.9887 97.7334 37.8907 97.5714 36.2347L104.357 36.2347L104.357 35.8207ZM90.7432 31.6807L89.4292 31.6807L89.4292 33.1747C88.7992 32.1847 87.7552 31.5547 86.3512 31.5547C83.9932 31.5547 82.3192 33.3547 82.3192 35.8207C82.3192 38.2867 83.9932 40.1047 86.3512 40.1047C87.7552 40.1047 88.7992 39.4567 89.4292 38.4667L89.4292 39.3487C89.4292 41.3287 87.9172 42.2467 86.3872 42.2467C85.4332 42.2467 84.5152 41.9227 83.8492 41.1847L82.9672 41.9227C83.7232 42.8227 84.9472 43.3807 86.3872 43.3807C89.0512 43.3807 90.7432 41.7247 90.7432 39.3487L90.7432 31.6807ZM132.228 31.6807L130.914 31.6807L130.914 33.1747C130.284 32.1847 129.24 31.5547 127.836 31.5547C125.478 31.5547 123.804 33.3367 123.804 35.8207C123.804 38.2867 125.478 40.1047 127.836 40.1047C129.24 40.1047 130.284 39.4567 130.914 38.4667L130.914 39.9607L132.228 39.9607L132.228 31.6807ZM141.535 31.6807L140.185 31.6807L137.611 38.1607L135.055 31.6807L133.705 31.6807L136.945 39.9427L135.649 43.2727L136.927 43.2727L141.535 31.6807ZM97.5714 35.3347C97.7514 33.7147 98.7774 32.6167 100.397 32.6167C101.945 32.6167 102.971 33.7687 103.151 35.3347L97.5714 35.3347ZM69.0737 35.8207C69.0737 37.5667 67.9217 38.8627 66.1757 38.8627C64.4297 38.8627 63.2597 37.5667 63.2597 35.8207C63.2597 34.0747 64.4297 32.7967 66.1757 32.7967C67.9217 32.7967 69.0737 34.0747 69.0737 35.8207ZM79.2514 35.8207C79.2514 37.5667 78.0995 38.8627 76.3535 38.8627C74.6075 38.8627 73.4375 37.5667 73.4375 35.8207C73.4375 34.0747 74.6075 32.7967 76.3535 32.7967C78.0995 32.7967 79.2514 34.0747 79.2514 35.8207ZM89.4292 35.8207C89.4292 37.5847 88.2772 38.8627 86.5132 38.8627C84.7492 38.8627 83.5792 37.5847 83.5792 35.8207C83.5792 34.0567 84.7492 32.7967 86.5132 32.7967C88.2772 32.7967 89.4292 34.0567 89.4292 35.8207ZM130.914 35.8207C130.914 37.5847 129.78 38.8627 127.998 38.8627C126.234 38.8627 125.064 37.5847 125.064 35.8207C125.064 34.0567 126.234 32.7967 127.998 32.7967C129.78 32.7967 130.914 34.0567 130.914 35.8207Z" fill="#FFFFFF" fill-opacity="1.000000" fill-rule="evenodd"/>
	<path id="Vector" d="M8.67065 42.1187L8.67065 9.14258L38.3223 25.1592L8.67065 42.1187Z" fill="#5CA9B3" fill-opacity="1.000000" fill-rule="nonzero"/>
	<path id="Vector" d="M8.67065 9.14258L29.6514 30.1235L38.3223 25.1592L8.67065 9.14258Z" fill="#C8DB9B" fill-opacity="1.000000" fill-rule="nonzero"/>
	<path id="Vector" d="M29.4717 20.374L8.67065 42.1187L38.3223 25.1587L29.4717 20.374Z" fill="#AC5067" fill-opacity="1.000000" fill-rule="nonzero"/>
	<path id="Vector" d="M29.6516 30.123L38.3225 25.1587L29.4719 20.374L24.7996 25.271L29.6516 30.123Z" fill="#F4A676" fill-opacity="1.000000" fill-rule="nonzero"/>
</svg>
