<svg width="17.800049" height="14.457031" viewBox="0 0 17.8 14.457" fill="none" xmlns="http://www.w3.org/2000/svg" xmlns:xlink="http://www.w3.org/1999/xlink">
	<desc>
			Created with Pixso.
	</desc>
	<defs/>
	<path id="Vector" d="M15.9702 3.60303C15.9817 3.76123 15.9817 3.91895 15.9817 4.07715C15.9817 8.8999 12.311 14.457 5.60205 14.457C3.53516 14.457 1.61499 13.8584 0 12.8193C0.293701 12.853 0.575928 12.8643 0.880859 12.8643C2.58643 12.8643 4.15625 12.2881 5.40991 11.3057C3.80615 11.272 2.46216 10.2217 1.99902 8.77588C2.2251 8.80957 2.45093 8.83203 2.68799 8.83203C3.01562 8.83203 3.34326 8.78711 3.64819 8.70801C1.97656 8.36914 0.7229 6.90088 0.7229 5.12744L0.7229 5.08252C1.2085 5.35352 1.77319 5.52295 2.37183 5.54541C1.38916 4.89062 0.745361 3.77246 0.745361 2.50732C0.745361 1.82959 0.926025 1.2085 1.24243 0.666504C3.03809 2.87988 5.73755 4.32568 8.7644 4.48389C8.70801 4.21289 8.67407 3.93066 8.67407 3.64795C8.67407 1.6377 10.3005 0 12.3223 0C13.3726 0 14.3213 0.44043 14.9875 1.15186C15.812 0.994141 16.6028 0.688965 17.303 0.270996C17.032 1.11816 16.4558 1.82959 15.6992 2.28125C16.4333 2.20264 17.1448 1.99902 17.8 1.7168C17.303 2.43945 16.6819 3.0835 15.9702 3.60303Z" fill="#2A2F2F" fill-opacity="1.000000" fill-rule="nonzero"/>
</svg>
