<svg width="24.000000" height="44.470596" viewBox="0 0 24 44.4706" fill="none" xmlns="http://www.w3.org/2000/svg" xmlns:xlink="http://www.w3.org/1999/xlink">
	<desc>
			Created with Pixso.
	</desc>
	<defs>
		<clipPath id="clip134_249">
			<rect id="ChevronLeft" width="24.000000" height="44.470589" transform="translate(24.000000 44.470581) rotate(-179.999985)" fill="white" fill-opacity="0"/>
		</clipPath>
		<clipPath id="clip134_248">
			<rect id="carousel-control-prev" width="24.000004" height="44.470592" fill="white" fill-opacity="0"/>
		</clipPath>
	</defs>
	<g clip-path="url(#clip134_248)">
		<rect id="ChevronLeft" width="24.000000" height="44.470589" transform="translate(24.000000 44.470581) rotate(-179.999985)" fill="#FFFFFF" fill-opacity="0"/>
		<g clip-path="url(#clip134_249)">
			<path id="Vector" d="M23.4993 43.7723C23.3408 43.9302 23.1528 44.0554 22.9458 44.1408C22.7385 44.2263 22.5166 44.2702 22.2925 44.2702C22.0681 44.2702 21.8462 44.2263 21.6392 44.1408C21.4321 44.0554 21.2439 43.9302 21.0857 43.7723L0.631104 23.4352C0.472412 23.2777 0.346436 23.0907 0.260498 22.8848C0.174561 22.6789 0.130371 22.4582 0.130371 22.2353C0.130371 22.0124 0.174561 21.7916 0.260498 21.5857C0.346436 21.3798 0.472412 21.1928 0.631104 21.0354L21.0857 0.698227C21.4058 0.379997 21.8398 0.201218 22.2925 0.201218C22.7451 0.201218 23.1792 0.379997 23.4993 0.698227C23.8193 1.01646 23.999 1.44807 23.999 1.89812C23.999 2.34817 23.8193 2.77979 23.4993 3.09801L4.24805 22.2353L23.4993 41.3726C23.658 41.53 23.7839 41.717 23.8699 41.9229C23.9558 42.1288 24 42.3495 24 42.5724C24 42.7954 23.9558 43.0161 23.8699 43.222C23.7839 43.4279 23.658 43.6149 23.4993 43.7723Z" fill="#FFFFFF" fill-opacity="1.000000" fill-rule="evenodd"/>
		</g>
	</g>
</svg>
